PathFileType	4	(X/Y/Z)	Walk6.trc
DataRate	CameraRate	NumFrames	NumMarkers	Units	OrigDataRate	OrigDataStartFrame	OrigNumFrames
200.000000	200.000000	8	59	mm	200.000000	241	490
Frame#	Times		LFHD		RFHD		CLAV		RBack		RACR1		RUA1		RFA1		RWRR		RWRU		RCAR		LACR1		LUA1		LFA1		LWRU		RTH1		RTH3		LTH3		LTH2		LTH4		LLFC		LWRR		LTH1		T10		RElbow		LASI		C7		RTH2		LTB2		LToe		LBHD		LTB4		RTH4		STRN		LMMAL		RTB1		LMT1		RTB2		RBHD		LTB1		LCAL		LCAR		LElbow		LTB3		RPSI		RElbowM		LElbowM		RLFC		LMT5		LLMAL		LPSI		RTB4		RMT1		RASI		RTB3		RCAL		RMT5		RLMAL		RToe		RMMAL
			X1	Y1	Z1	X2	Y2	Z2	X3	Y3	Z3	X4	Y4	Z4	X5	Y5	Z5	X6	Y6	Z6	X7	Y7	Z7	X8	Y8	Z8	X9	Y9	Z9	X10	Y10	Z10	X11	Y11	Z11	X12	Y12	Z12	X13	Y13	Z13	X14	Y14	Z14	X15	Y15	Z15	X16	Y16	Z16	X17	Y17	Z17	X18	Y18	Z18	X19	Y19	Z19	X20	Y20	Z20	X21	Y21	Z21	X22	Y22	Z22	X23	Y23	Z23	X24	Y24	Z24	X25	Y25	Z25	X26	Y26	Z26	X27	Y27	Z27	X28	Y28	Z28	X29	Y29	Z29	X30	Y30	Z30	X31	Y31	Z31	X32	Y32	Z32	X33	Y33	Z33	X34	Y34	Z34	X35	Y35	Z35	X36	Y36	Z36	X37	Y37	Z37	X38	Y38	Z38	X39	Y39	Z39	X40	Y40	Z40	X41	Y41	Z41	X42	Y42	Z42	X43	Y43	Z43	X44	Y44	Z44	X45	Y45	Z45	X46	Y46	Z46	X47	Y47	Z47	X48	Y48	Z48	X49	Y49	Z49	X50	Y50	Z50	X51	Y51	Z51	X52	Y52	Z52	X53	Y53	Z53	X54	Y54	Z54	X55	Y55	Z55	X56	Y56	Z56	X57	Y57	Z57	X58	Y58	Z58	X59	Y59	Z59

241	1.205	-480.9	1416.3	-115.82	-491.08	1408.7	-19.899	-503.82	1165.3	-73.546	-692.34	1127.3	44.749	-575.07	1195.8	106.63	-546.2	1054.8	187.38	-446.57	825.66	214.49	-409.6	736.37	173.29	-442.13	723.33	235.74	-381.34	686.14	224.48	-581.37	1188.7	-263.21	-578.22	1021	-330.06	-585.14	813.89	-382.83	-613.96	706.19	-407.87	-621.37	621.72	134.36	-672.57	465.15	79.13	-521.04	468.69	-230.93	-494.39	572.44	-232.61	-540.64	548.94	-262.18	-474.21	393.13	-190.93	-560.25	700.85	-375.3	-561.73	629.79	-283.68	-733.35	1050.6	-64.44	-530.57	927.83	219.97	-526.28	795.79	-227.92	-648.31	1249.8	-75.991	-593.25	531.66	91.702	-418.17	223.83	-178.77	-224.01	104.79	-124.47	-604.44	1333.4	-144.57	-397.27	231.12	-120.73	-649.06	544.17	111.74	-453.62	1058.4	-63.148	-373.47	86.797	-73.523	-710.65	273.44	1.0076	-264.04	88.023	-95.618	-787.46	208.57	36.771	-617.63	1331.7	-12.112	-419.37	316.11	-124.51	-422.27	33.423	-103.43	-581.73	654.87	-421.6	-625.75	908.95	-341.44	-370.02	152.7	-118.37	-780.05	835.22	-25.44	-584.71	887.91	155.86	-649.14	887.69	-273.01	-724.15	387.92	55.019	-297.04	51.686	-169.93	-390.89	63.227	-150.11	-780.55	825.98	-128.67	-752.9	198.28	-12.912	-760.2	23.854	-66.668	-523.98	806.22	96.955	-789.94	122.99	-26.954	-919.48	73.692	-41.951	-787.81	18.193	24.333	-857.62	79.048	4.5991	-705.16	24.997	-30.745	-842.25	87.963	-78.306
242	1.21	-475.34	1415.9	-116.13	-485.53	1408.2	-20.209	-498.03	1164.9	-73.966	-686.71	1126.6	44.049	-569.63	1195.1	106.17	-540.66	1054.1	186.95	-441.25	824.98	214.36	-404.37	735.6	173.42	-436.97	722.69	235.85	-376.22	685.46	224.76	-575.67	1188.1	-263.75	-572.71	1020.3	-330.57	-579.57	813.17	-383.31	-608.59	705.49	-408.3	-615.18	621.34	134.62	-666.8	464.78	79.7	-514.52	468.42	-230.3	-487.89	572.18	-232.44	-534.27	548.56	-261.69	-467.9	392.69	-190.31	-554.73	700.09	-375.99	-555.51	629.32	-283.33	-727.39	1049.9	-65.101	-525.11	927.29	219.68	-519.57	794.91	-227.76	-642.62	1249.2	-76.575	-587.32	531.14	92.027	-413.39	222.68	-177.72	-220.29	100.13	-122.35	-598.81	1332.9	-144.97	-392.6	229.84	-119.61	-643.05	543.83	112.17	-447.68	1058	-63.231	-370.54	85.267	-72.28	-706.76	272.93	1.6344	-261.06	84.425	-93.745	-784.36	209.09	37.546	-612.02	1331.1	-12.503	-413.89	314.98	-123.59	-419.96	33.223	-102.59	-576.45	654.23	-422.26	-619.97	908.2	-341.71	-366.08	151.23	-117.06	-773.86	834.6	-25.8	-579.3	887.31	155.66	-643.07	886.97	-273.21	-718.77	387.67	55.756	-294.36	48.851	-168.38	-387.94	62.209	-148.98	-774.03	825.43	-129.02	-750.12	198.46	-12.32	-760.21	24.04	-66.558	-518.19	806.24	97.302	-788.25	123.73	-26.38	-918.47	76.43	-41.13	-787.63	18.21	24.435	-856.51	80.629	5.3094	-705.24	24.943	-30.978	-841.18	89.552	-77.605
243	1.215	-469.76	1415.6	-116.45	-479.97	1407.8	-20.526	-492.2	1164.5	-74.421	-681.07	1125.9	43.315	-564.15	1194.5	105.68	-535.16	1053.6	186.49	-436	824.34	214.21	-399.22	734.85	173.56	-431.91	722.07	235.95	-371.2	684.8	225.04	-569.9	1187.4	-264.32	-567.18	1019.6	-331.12	-573.9	812.47	-383.77	-603.11	704.81	-408.68	-608.9	620.98	134.88	-660.83	464.4	80.316	-507.88	468.31	-229.69	-481.25	572.08	-232.28	-527.79	548.35	-261.2	-461.51	392.39	-189.73	-549.11	699.37	-376.6	-549.14	629.03	-282.97	-721.4	1049.2	-65.783	-519.69	926.79	219.36	-512.85	794.13	-227.61	-636.86	1248.7	-77.191	-581.25	530.67	92.378	-408.68	221.61	-176.74	-216.8	95.154	-120.26	-593.14	1332.5	-145.38	-388.02	228.62	-118.55	-636.9	543.49	112.63	-441.7	1057.7	-63.396	-367.85	83.765	-71.123	-702.64	272.4	2.3346	-258.34	80.611	-91.929	-781.07	209.62	38.368	-606.37	1330.5	-12.912	-408.43	313.91	-122.71	-417.97	33.182	-101.86	-571.03	653.61	-422.85	-614.14	907.49	-342	-362.31	149.79	-115.82	-767.62	833.99	-26.091	-573.92	886.76	155.41	-636.95	886.29	-273.41	-713.13	387.36	56.563	-292.01	45.933	-166.95	-385.23	61.268	-147.94	-767.53	824.92	-129.32	-747.16	198.65	-11.677	-760.2	24.242	-66.444	-512.33	806.3	97.562	-786.4	124.52	-25.769	-917.27	79.356	-40.298	-787.45	18.249	24.538	-855.28	82.317	6.0432	-705.35	24.892	-31.227	-839.96	91.247	-76.87
244	1.22	-464.17	1415.4	-116.77	-474.39	1407.5	-20.85	-486.33	1164.1	-74.906	-675.4	1125.3	42.551	-558.62	1193.9	105.17	-529.69	1053	186	-430.84	823.73	214.07	-394.14	734.13	173.69	-426.94	721.49	236.04	-366.28	684.16	225.33	-564.07	1186.9	-264.93	-561.62	1019	-331.7	-568.15	811.81	-384.21	-597.51	704.15	-409.02	-602.53	620.67	135.16	-654.64	464.01	80.979	-501.17	468.35	-229.1	-474.5	572.13	-232.12	-521.19	548.31	-260.72	-455.04	392.24	-189.2	-543.38	698.68	-377.16	-542.65	628.92	-282.61	-715.4	1048.7	-66.481	-514.32	926.34	219.01	-506.13	793.48	-227.48	-631.03	1248.2	-77.838	-575.01	530.26	92.755	-403.99	220.66	-175.85	-213.51	89.95	-118.24	-587.44	1332.2	-145.81	-383.53	227.48	-117.56	-630.6	543.16	113.09	-435.7	1057.4	-63.644	-365.33	82.328	-70.077	-698.29	271.83	3.1131	-255.81	76.661	-90.204	-777.58	210.19	39.229	-600.7	1330	-13.34	-402.98	312.93	-121.9	-416.23	33.304	-101.24	-565.49	653.02	-423.37	-608.24	906.83	-342.29	-358.68	148.41	-114.68	-761.34	833.39	-26.306	-568.58	886.28	155.13	-630.77	885.68	-273.63	-707.2	387	57.442	-289.91	42.993	-165.67	-382.7	60.424	-147.03	-761.04	824.46	-129.55	-744	198.86	-10.982	-760.17	24.462	-66.327	-506.38	806.39	97.726	-784.39	125.36	-25.12	-915.87	82.489	-39.472	-787.27	18.321	24.639	-853.91	84.124	6.7889	-705.49	24.842	-31.489	-838.56	93.055	-76.107
245	1.225	-458.56	1415.3	-117.1	-468.8	1407.3	-21.178	-480.43	1163.8	-75.42	-669.7	1124.9	41.763	-553.05	1193.4	104.63	-524.25	1052.6	185.49	-425.75	823.16	213.93	-389.15	733.44	173.83	-422.06	720.95	236.13	-361.46	683.54	225.62	-558.16	1186.4	-265.57	-556.01	1018.5	-332.3	-562.31	811.19	-384.62	-591.8	703.52	-409.31	-596.07	620.39	135.44	-648.24	463.61	81.687	-494.4	468.55	-228.55	-467.67	572.33	-231.96	-514.51	548.44	-260.26	-448.52	392.24	-188.74	-537.55	698.04	-377.65	-536.03	628.99	-282.27	-709.38	1048.3	-67.192	-508.99	925.95	218.63	-499.42	792.97	-227.35	-625.14	1247.9	-78.514	-568.59	529.9	93.155	-399.33	219.84	-175.09	-210.4	84.616	-116.33	-581.7	1331.9	-146.25	-379.1	226.44	-116.67	-624.15	542.85	113.56	-429.67	1057.3	-63.978	-362.96	80.983	-69.159	-693.69	271.24	3.9747	-253.46	72.651	-88.596	-773.87	210.79	40.123	-594.99	1329.6	-13.784	-397.56	312.06	-121.17	-414.69	33.579	-100.76	-559.83	652.46	-423.82	-602.28	906.22	-342.6	-355.16	147.11	-113.66	-755.02	832.81	-26.44	-563.26	885.88	154.79	-624.54	885.15	-273.87	-700.98	386.59	58.389	-288.03	40.083	-164.54	-380.31	59.682	-146.25	-754.57	824.05	-129.72	-740.62	199.08	-10.233	-760.1	24.702	-66.21	-500.34	806.51	97.788	-782.18	126.28	-24.436	-914.22	85.844	-38.674	-787.08	18.439	24.735	-852.37	86.063	7.5346	-705.66	24.794	-31.758	-836.94	94.983	-75.326
246	1.23	-452.92	1415.2	-117.43	-463.18	1407.1	-21.511	-474.49	1163.6	-75.958	-663.98	1124.5	40.956	-547.43	1193	104.07	-518.84	1052.2	184.96	-420.74	822.64	213.79	-384.23	732.78	173.96	-417.29	720.45	236.2	-356.75	682.96	225.91	-552.18	1186	-266.23	-550.35	1018.1	-332.92	-556.37	810.61	-385.01	-585.97	702.93	-409.56	-589.51	620.16	135.72	-641.6	463.2	82.441	-487.59	468.89	-228.06	-460.77	572.67	-231.79	-507.76	548.75	-259.82	-441.95	392.41	-188.34	-531.62	697.46	-378.06	-529.3	629.24	-281.95	-703.36	1048	-67.909	-503.7	925.62	218.22	-492.71	792.59	-227.21	-619.18	1247.7	-79.215	-562	529.62	93.579	-394.69	219.14	-174.45	-207.49	79.244	-114.53	-575.92	1331.7	-146.7	-374.73	225.49	-115.9	-617.53	542.55	114.04	-423.61	1057.1	-64.398	-360.72	79.747	-68.378	-688.81	270.63	4.9244	-251.28	68.65	-87.125	-769.94	211.45	41.047	-589.25	1329.2	-14.243	-392.15	311.29	-120.53	-413.3	33.987	-100.41	-554.04	651.94	-424.19	-596.26	905.67	-342.91	-351.76	145.89	-112.79	-748.66	832.24	-26.489	-557.98	885.56	154.4	-618.25	884.69	-274.11	-694.46	386.14	59.404	-286.34	37.248	-163.6	-378.03	59.04	-145.63	-748.13	823.7	-129.82	-736.98	199.33	-9.427	-759.99	24.964	-66.095	-494.2	806.65	97.744	-779.74	127.26	-23.714	-912.29	89.435	-37.921	-786.89	18.616	24.821	-850.65	88.146	8.269	-705.86	24.747	-32.029	-835.07	97.036	-74.531
247	1.235	-447.27	1415.3	-117.76	-457.54	1407.1	-21.848	-468.52	1163.5	-76.516	-658.24	1124.3	40.137	-541.76	1192.7	103.5	-513.46	1052	184.41	-415.81	822.18	213.65	-379.4	732.17	174.08	-412.62	720.01	236.27	-352.16	682.42	226.21	-546.11	1185.6	-266.92	-544.62	1017.7	-333.56	-550.34	810.11	-385.37	-580.03	702.39	-409.76	-582.86	619.98	136.01	-634.72	462.78	83.244	-480.76	469.38	-227.64	-453.85	573.15	-231.6	-500.95	549.21	-259.42	-435.35	392.71	-188.02	-525.59	696.94	-378.41	-522.47	629.67	-281.66	-697.33	1047.8	-68.629	-498.46	925.37	217.78	-486.02	792.36	-227.06	-613.15	1247.5	-79.938	-555.23	529.41	94.024	-390.07	218.55	-173.95	-204.77	73.919	-112.88	-570.1	1331.5	-147.16	-370.43	224.64	-115.26	-610.74	542.28	114.53	-417.53	1057.1	-64.904	-358.6	78.629	-67.735	-683.64	270.01	5.9672	-249.26	64.717	-85.801	-765.75	212.16	41.997	-583.48	1329	-14.715	-386.76	310.63	-119.99	-412.05	34.501	-100.18	-548.11	651.48	-424.48	-590.17	905.2	-343.24	-348.48	144.76	-112.06	-742.29	831.69	-26.449	-552.73	885.33	153.95	-611.91	884.33	-274.37	-687.61	385.64	60.488	-284.82	34.524	-162.85	-375.88	58.485	-145.14	-741.73	823.41	-129.85	-733.07	199.61	-8.5617	-759.82	25.252	-65.985	-487.97	806.82	97.59	-777.06	128.34	-22.953	-910.04	93.275	-37.229	-786.68	18.869	24.893	-848.72	90.385	8.9821	-706.1	24.7	-32.295	-832.9	99.218	-73.727
248	1.24	-441.58	1415.5	-118.09	-451.88	1407.2	-22.189	-462.52	1163.5	-77.087	-652.47	1124.3	39.314	-536.04	1192.5	102.91	-508.11	1051.8	183.85	-410.95	821.79	213.51	-374.64	731.61	174.2	-408.05	719.63	236.31	-347.67	681.93	226.51	-539.97	1185.4	-267.61	-538.83	1017.4	-334.21	-544.22	809.67	-385.7	-573.97	701.92	-409.91	-576.1	619.85	136.3	-627.57	462.36	84.097	-473.94	470.01	-227.3	-446.92	573.76	-231.37	-494.1	549.84	-259.06	-428.73	393.15	-187.78	-519.45	696.51	-378.67	-515.57	630.27	-281.41	-691.29	1047.8	-69.347	-493.27	925.19	217.32	-479.35	792.28	-226.9	-607.07	1247.5	-80.676	-548.26	529.27	94.487	-385.51	218.07	-173.59	-202.27	68.722	-111.38	-564.25	1331.5	-147.62	-366.22	223.88	-114.75	-603.78	542.03	115.02	-411.43	1057.1	-65.494	-356.62	77.629	-67.222	-678.16	269.38	7.1085	-247.41	60.907	-84.626	-761.3	212.96	42.973	-577.67	1328.8	-15.197	-381.41	310.05	-119.57	-410.91	35.092	-100.06	-542.06	651.07	-424.69	-584	904.82	-343.56	-345.32	143.71	-111.49	-735.89	831.17	-26.319	-547.51	885.2	153.44	-605.53	884.07	-274.63	-680.42	385.11	61.638	-283.47	31.944	-162.29	-373.86	58.009	-144.78	-735.36	823.18	-129.82	-728.86	199.93	-7.6315	-759.59	25.573	-65.88	-481.64	807.01	97.328	-774.08	129.5	-22.151	-907.42	97.373	-36.61	-786.44	19.214	24.946	-846.54	92.787	9.6662	-706.37	24.652	-32.548	-830.4	101.53	-72.918
